<svg fill="none" height="24" viewBox="0 0 24 24" width="24" xmlns="http://www.w3.org/2000/svg"><g fill="#ed6b1e"><path d="m15.2105 11.248h-6.4053v1.44h6.4053z"/><path d="m18.4051 6h-4.2329l1.0223 1.456 3.0988.944c.575.176.9424.72.9265 1.28v4.64c0 .576-.3674 1.104-.9265 1.28l-3.0828.944-1.0383 1.456h4.2329c1.7731 0 3.1947-1.44 3.1947-3.2v-5.6c.0159-1.76-1.4216-3.2-3.1947-3.2z"/><path d="m5.59456 6h4.23292l-1.02229 1.456-3.08285.944c-.57503.176-.94242.72-.92645 1.28v4.64c0 .576.36739 1.104.92645 1.28l3.08285.944 1.02229 1.456h-4.23292c-1.75706 0-3.19466-1.44-3.19466-3.2v-5.6c0-1.76 1.4376-3.2 3.19466-3.2z"/></g></svg>